<svg width="192" height="192" viewBox="0 0 192 192" fill="none" xmlns="http://www.w3.org/2000/svg">
<circle cx="96" cy="96" r="90.5" stroke="#008B61" stroke-width="11"/>
<mask id="path-2-outside-1_359_2" maskUnits="userSpaceOnUse" x="25" y="61" width="134" height="75" fill="black">
<rect fill="white" x="25" y="61" width="134" height="75"/>
<path d="M26.6875 135V62.2727H58.0795C63.4773 62.2727 68.2003 63.3381 72.2486 65.4688C76.2969 67.5994 79.4456 70.5942 81.6946 74.4531C83.9437 78.312 85.0682 82.822 85.0682 87.983C85.0682 93.1913 83.9081 97.7012 81.5881 101.513C79.2917 105.324 76.0601 108.26 71.8935 110.32C67.7505 112.379 62.9091 113.409 57.3693 113.409H38.6193V98.0682H53.392C55.7121 98.0682 57.6889 97.6657 59.3224 96.8608C60.9796 96.0322 62.2462 94.8603 63.1222 93.3452C64.0218 91.83 64.4716 90.0426 64.4716 87.983C64.4716 85.8996 64.0218 84.1241 63.1222 82.6562C62.2462 81.1648 60.9796 80.0284 59.3224 79.2472C57.6889 78.4422 55.7121 78.0398 53.392 78.0398H46.4318V135H26.6875ZM92.3125 135V62.2727H112.057V90.6818H138.193V62.2727H157.938V135H138.193V106.591H112.057V135H92.3125Z"/>
</mask>
<path d="M26.6875 135V62.2727H58.0795C63.4773 62.2727 68.2003 63.3381 72.2486 65.4688C76.2969 67.5994 79.4456 70.5942 81.6946 74.4531C83.9437 78.312 85.0682 82.822 85.0682 87.983C85.0682 93.1913 83.9081 97.7012 81.5881 101.513C79.2917 105.324 76.0601 108.26 71.8935 110.32C67.7505 112.379 62.9091 113.409 57.3693 113.409H38.6193V98.0682H53.392C55.7121 98.0682 57.6889 97.6657 59.3224 96.8608C60.9796 96.0322 62.2462 94.8603 63.1222 93.3452C64.0218 91.83 64.4716 90.0426 64.4716 87.983C64.4716 85.8996 64.0218 84.1241 63.1222 82.6562C62.2462 81.1648 60.9796 80.0284 59.3224 79.2472C57.6889 78.4422 55.7121 78.0398 53.392 78.0398H46.4318V135H26.6875ZM92.3125 135V62.2727H112.057V90.6818H138.193V62.2727H157.938V135H138.193V106.591H112.057V135H92.3125Z" fill="#008B61"/>
<path d="M26.6875 135H25.6875V136H26.6875V135ZM26.6875 62.2727V61.2727H25.6875V62.2727H26.6875ZM72.2486 65.4688L71.7828 66.3537H71.7828L72.2486 65.4688ZM81.6946 74.4531L82.5586 73.9496L81.6946 74.4531ZM81.5881 101.513L80.7339 100.993L80.7315 100.997L81.5881 101.513ZM71.8935 110.32L71.4503 109.423L71.4483 109.424L71.8935 110.32ZM38.6193 113.409H37.6193V114.409H38.6193V113.409ZM38.6193 98.0682V97.0682H37.6193V98.0682H38.6193ZM59.3224 96.8608L59.7645 97.7578L59.7697 97.7552L59.3224 96.8608ZM63.1222 93.3452L62.2622 92.8346L62.2564 92.8447L63.1222 93.3452ZM63.1222 82.6562L62.2599 83.1627L62.2646 83.1708L62.2696 83.1788L63.1222 82.6562ZM59.3224 79.2472L58.8804 80.1442L58.8882 80.148L58.896 80.1517L59.3224 79.2472ZM46.4318 78.0398V77.0398H45.4318V78.0398H46.4318ZM46.4318 135V136H47.4318V135H46.4318ZM27.6875 135V62.2727H25.6875V135H27.6875ZM26.6875 63.2727H58.0795V61.2727H26.6875V63.2727ZM58.0795 63.2727C63.3441 63.2727 67.9019 64.3111 71.7828 66.3537L72.7143 64.5838C68.4987 62.3651 63.6104 61.2727 58.0795 61.2727V63.2727ZM71.7828 66.3537C75.6695 68.3993 78.6783 71.2638 80.8306 74.9567L82.5586 73.9496C80.2128 69.9247 76.9242 66.7996 72.7143 64.5838L71.7828 66.3537ZM80.8306 74.9567C82.9775 78.6403 84.0682 82.971 84.0682 87.983H86.0682C86.0682 82.6729 84.9098 77.9838 82.5586 73.9496L80.8306 74.9567ZM84.0682 87.983C84.0682 93.039 82.9436 97.3625 80.7339 100.993L82.4423 102.033C84.8727 98.0399 86.0682 93.3436 86.0682 87.983H84.0682ZM80.7315 100.997C78.5383 104.637 75.4537 107.444 71.4503 109.423L72.3366 111.216C76.6666 109.076 80.0451 106.012 82.4446 102.029L80.7315 100.997ZM71.4483 109.424C67.4683 111.403 62.7848 112.409 57.3693 112.409V114.409C63.0334 114.409 68.0326 113.356 72.3386 111.215L71.4483 109.424ZM57.3693 112.409H38.6193V114.409H57.3693V112.409ZM39.6193 113.409V98.0682H37.6193V113.409H39.6193ZM38.6193 99.0682H53.392V97.0682H38.6193V99.0682ZM53.392 99.0682C55.8247 99.0682 57.961 98.6464 59.7645 97.7578L58.8804 95.9638C57.4168 96.685 55.5996 97.0682 53.392 97.0682V99.0682ZM59.7697 97.7552C61.5911 96.8445 63.0081 95.5404 63.9879 93.8457L62.2564 92.8447C61.4843 94.1802 60.3682 95.2199 58.8752 95.9664L59.7697 97.7552ZM63.982 93.8557C64.9879 92.1616 65.4716 90.1916 65.4716 87.983H63.4716C63.4716 89.8936 63.0557 91.4984 62.2623 92.8346L63.982 93.8557ZM65.4716 87.983C65.4716 85.7541 64.9893 83.7889 63.9748 82.1337L62.2696 83.1788C63.0543 84.4592 63.4716 86.0452 63.4716 87.983H65.4716ZM63.9844 82.1498C63.0004 80.4743 61.5767 79.2043 59.7489 78.3426L58.896 80.1517C60.3826 80.8525 61.492 81.8553 62.2599 83.1627L63.9844 82.1498ZM59.7645 78.3501C57.961 77.4615 55.8247 77.0398 53.392 77.0398V79.0398C55.5996 79.0398 57.4168 79.423 58.8804 80.1442L59.7645 78.3501ZM53.392 77.0398H46.4318V79.0398H53.392V77.0398ZM45.4318 78.0398V135H47.4318V78.0398H45.4318ZM46.4318 134H26.6875V136H46.4318V134ZM92.3125 135H91.3125V136H92.3125V135ZM92.3125 62.2727V61.2727H91.3125V62.2727H92.3125ZM112.057 62.2727H113.057V61.2727H112.057V62.2727ZM112.057 90.6818H111.057V91.6818H112.057V90.6818ZM138.193 90.6818V91.6818H139.193V90.6818H138.193ZM138.193 62.2727V61.2727H137.193V62.2727H138.193ZM157.938 62.2727H158.938V61.2727H157.938V62.2727ZM157.938 135V136H158.938V135H157.938ZM138.193 135H137.193V136H138.193V135ZM138.193 106.591H139.193V105.591H138.193V106.591ZM112.057 106.591V105.591H111.057V106.591H112.057ZM112.057 135V136H113.057V135H112.057ZM93.3125 135V62.2727H91.3125V135H93.3125ZM92.3125 63.2727H112.057V61.2727H92.3125V63.2727ZM111.057 62.2727V90.6818H113.057V62.2727H111.057ZM112.057 91.6818H138.193V89.6818H112.057V91.6818ZM139.193 90.6818V62.2727H137.193V90.6818H139.193ZM138.193 63.2727H157.938V61.2727H138.193V63.2727ZM156.938 62.2727V135H158.938V62.2727H156.938ZM157.938 134H138.193V136H157.938V134ZM139.193 135V106.591H137.193V135H139.193ZM138.193 105.591H112.057V107.591H138.193V105.591ZM111.057 106.591V135H113.057V106.591H111.057ZM112.057 134H92.3125V136H112.057V134Z" fill="#008B61" mask="url(#path-2-outside-1_359_2)"/>
</svg>
